<svg width="180.79999999999998px" height="336.8px" xmlns="http://www.w3.org/2000/svg" viewBox="159.60000000000002 -93.4 180.79999999999998 336.8" style="background: rgba(0, 0, 0, 0);" preserveAspectRatio="xMidYMid"><defs><filter id="editing-extrude-glow"><feFlood flood-color="#333333" result="flood-1"></feFlood><feMorphology operator="erode" radius="1" in="SourceAlpha" result="erode"></feMorphology><feComposite operator="in" in="flood-1" in2="erode" result="comp1"></feComposite><feConvolveMatrix order="3,3" divisor="1" in="comp1" result="convolve" kernelMatrix="0 0 0 1 1 1 0 0 0"></feConvolveMatrix><feOffset dx="-3" dy="0" in="convolve" result="extrude"></feOffset><feComposite operator="in" in="flood-1" in2="extrude" result="comp-extrude"></feComposite><feFlood flood-color="#000000" result="flood-2"></feFlood><feComposite operator="in" in="flood-2" in2="SourceAlpha" result="comp2"></feComposite><feMorphology operator="dilate" radius="1" in="comp2" result="dilate"></feMorphology><feOffset dx="-4.5" dy="0" in="dilate" result="offset"></feOffset><feGaussianBlur in="offset" stdDeviation="5.8" result="blur"></feGaussianBlur><feComponentTransfer in="blur" result="shadow"><feFuncA type="linear" slope="0.8" intercept="-0.2"></feFuncA></feComponentTransfer><feMerge><feMergeNode in="shadow"></feMergeNode><feMergeNode in="comp-extrude"></feMergeNode><feMergeNode in="SourceGraphic"></feMergeNode></feMerge></filter></defs><g filter="url(#editing-extrude-glow)"><g transform="translate(191.31720885634422, 145)"><path d="M81.40-92.40L81.40-92.40L81.40-92.40Q84.40-98.40 84.40-104L84.40-104L84.40-104Q84.40-109.60 83.80-112.70L83.80-112.70L83.80-112.70Q83.20-115.80 81.80-118.20L81.80-118.20L81.80-118.20Q78.80-123.40 72.80-123.40L72.80-123.40L72.80-123.40Q65.40-123.40 59.40-118L59.40-118L59.40-118Q53-112.40 53-103.60L53-103.60L53-103.60Q53-98 56.90-93.70L56.90-93.70L56.90-93.70Q60.80-89.40 66.80-85.40L66.80-85.40L66.80-85.40Q72.80-81.40 79.60-77.40L79.60-77.40L79.60-77.40Q86.40-73.40 92.40-68.60L92.40-68.60L92.40-68.60Q106.20-57.60 106.20-42.80L106.20-42.80L106.20-42.80Q106.20-32.80 100.90-24.30L100.90-24.30L100.90-24.30Q95.60-15.80 86.80-9.60L86.80-9.60L86.80-9.60Q67.60 4 42.20 4L42.20 4L42.20 4Q21.60 4 11-2.70L11-2.70L11-2.70Q0.40-9.40 0.40-19.60L0.40-19.60L0.40-19.60Q0.40-37.80 14.60-42.40L14.60-42.40L14.60-42.40Q18.60-43.80 24.70-43.80L24.70-43.80L24.70-43.80Q30.80-43.80 37.80-41.20L37.80-41.20L37.80-41.20Q34.60-33 34.60-25.60L34.60-25.60L34.60-25.60Q34.60-9.60 46-9.60L46-9.60L46-9.60Q53.40-9.60 59.50-15L59.50-15L59.50-15Q65.60-20.40 65.60-26.50L65.60-26.50L65.60-26.50Q65.60-32.60 61.70-37L61.70-37L61.70-37Q57.80-41.40 52-44.90L52-44.90L52-44.90Q46.20-48.40 39.50-51.80L39.50-51.80L39.50-51.80Q32.80-55.20 27-60L27-60L27-60Q13.40-71 13.40-88.60L13.40-88.60L13.40-88.60Q13.40-100 19-108.90L19-108.90L19-108.90Q24.60-117.80 33.60-123.80L33.60-123.80L33.60-123.80Q51.60-136 73.70-136L73.70-136L73.70-136Q95.80-136 106.50-129.40L106.50-129.40L106.50-129.40Q117.20-122.80 117.20-111.60L117.20-111.60L117.20-111.60Q117.20-101.80 109.60-95.60L109.60-95.60L109.60-95.60Q103-90.40 95-90.40L95-90.40L95-90.40Q87-90.40 81.40-92.40Z" fill="#eb6c6c"></path></g></g><style>text {
  font-size: 64px;
  font-family: Arial Black;
  dominant-baseline: central;
  text-anchor: middle;
}</style></svg>