<svg width="1349.50625px" height="336.8px" xmlns="http://www.w3.org/2000/svg" viewBox="-424.75312499999995 -93.4 1349.50625 336.8" style="background: rgba(0, 0, 0, 0);" preserveAspectRatio="xMidYMid"><defs><filter id="editing-extrude-glow"><feFlood flood-color="#333333" result="flood-1"></feFlood><feMorphology operator="erode" radius="1" in="SourceAlpha" result="erode"></feMorphology><feComposite operator="in" in="flood-1" in2="erode" result="comp1"></feComposite><feConvolveMatrix order="4,4" divisor="1" in="comp1" result="convolve" kernelMatrix="0 0 0 0 0 0 0 0 1 1 1 1 0 0 0 0"></feConvolveMatrix><feOffset dx="-4" dy="0" in="convolve" result="extrude"></feOffset><feComposite operator="in" in="flood-1" in2="extrude" result="comp-extrude"></feComposite><feFlood flood-color="#000000" result="flood-2"></feFlood><feComposite operator="in" in="flood-2" in2="SourceAlpha" result="comp2"></feComposite><feMorphology operator="dilate" radius="1" in="comp2" result="dilate"></feMorphology><feOffset dx="-6" dy="0" in="dilate" result="offset"></feOffset><feGaussianBlur in="offset" stdDeviation="5.8" result="blur"></feGaussianBlur><feComponentTransfer in="blur" result="shadow"><feFuncA type="linear" slope="0.8" intercept="-0.2"></feFuncA></feComponentTransfer><feMerge><feMergeNode in="shadow"></feMergeNode><feMergeNode in="comp-extrude"></feMergeNode><feMergeNode in="SourceGraphic"></feMergeNode></feMerge></filter></defs><g filter="url(#editing-extrude-glow)"><g transform="translate(-238.00001215934753, 150)"><path d="M87-30.80L87-30.80L87-30.80Q90.80-26 90.80-16.70L90.80-16.70L90.80-16.70Q90.80-7.40 83.70-1.70L83.70-1.70L83.70-1.70Q76.60 4 64.20 4L64.20 4L64.20 4Q57 4 45.80 2.40L45.80 2.40L45.80 2.40Q23.80-1 17.50-1L17.50-1L17.50-1Q11.20-1 8.60-0.70L8.60-0.70L8.60-0.70Q6-0.40 1.80 0L1.80 0L26-132L69.80-132L49.80-22L49.80-22Q52.40-21.60 54.80-21.60L54.80-21.60L59.80-21.60L59.80-21.60Q76.60-21.60 87-30.80ZM152.20-11L152.20-11L152.20-11Q146 4 126.20 4L126.20 4L126.20 4Q116.00 4 109.60-3L109.60-3L109.60-3Q104.20-9.20 104.20-15.40L104.20-15.40L104.20-15.40Q104.20-31.60 111.60-63.20L111.60-63.20L119.00-102L159.60-106L147.40-42.80L147.40-42.80Q144-28 144-22.80L144-22.80L144-22.80Q144-11.40 152.20-11ZM122.60-129.80L122.60-129.80L122.60-129.80Q122.60-137.60 129.10-141.80L129.10-141.80L129.10-141.80Q135.60-146 145-146L145-146L145-146Q154.40-146 160.10-141.80L160.10-141.80L160.10-141.80Q165.80-137.60 165.80-129.80L165.80-129.80L165.80-129.80Q165.80-122 159.50-118L159.50-118L159.50-118Q153.20-114 143.80-114L143.80-114L143.80-114Q134.40-114 128.50-118L128.50-118L128.50-118Q122.60-122 122.60-129.80ZM241.80-98.60L241.80-98.60L241.80-98.60Q248.40-106 259.80-106L259.80-106L259.80-106Q266.80-106 272.20-102.20L272.20-102.20L272.20-102.20Q277.60-98.40 277.60-91.30L277.60-91.30L277.60-91.30Q277.60-84.20 275.40-76.60L275.40-76.60L275.40-76.60Q273.20-69 269.80-61.20L269.80-61.20L269.80-61.20Q263-46 253.60-33.40L253.60-33.40L253.60-33.40Q240.40-15.20 227.70-5.60L227.70-5.60L227.70-5.60Q215 4 201.20 4L201.20 4L201.20 4Q190 4 183.20 1.40L183.20 1.40L183.20 1.40Q182-40.60 180.50-55.60L180.50-55.60L180.50-55.60Q179-70.60 177.80-78.80L177.80-78.80L177.80-78.80Q175.80-94.80 169.80-98.60L169.80-98.60L169.80-98.60Q174.40-102.60 178.90-104.30L178.90-104.30L178.90-104.30Q183.40-106 192.70-106L192.70-106L192.70-106Q202-106 208.60-98.70L208.60-98.70L208.60-98.70Q215.20-91.40 216.50-78.50L216.50-78.50L216.50-78.50Q217.80-65.60 217.80-50L217.80-50L217.80-50Q217.80-34.40 216.60-15.60L216.60-15.60L216.60-15.60Q222.80-20 229.40-33.40L229.40-33.40L229.40-33.40Q238.40-52 241.60-74.40L241.60-74.40L241.60-74.40Q242.60-81.20 242.60-88.40L242.60-88.40L242.60-88.40Q242.60-95.60 241.80-98.60ZM364-33.80L364-33.80L364-33.80Q369-30.40 369-22.90L369-22.90L369-22.90Q369-15.40 365.20-10.60L365.20-10.60L365.20-10.60Q361.40-5.80 355.20-2.60L355.20-2.60L355.20-2.60Q342.40 4 328.60 4L328.60 4L328.60 4Q314.80 4 306.70 1L306.70 1L306.70 1Q298.60-2 293.20-7.60L293.20-7.60L293.20-7.60Q282.60-18.20 282.60-37.60L282.60-37.60L282.60-37.60Q282.60-67.80 299-86.20L299-86.20L299-86.20Q316.60-106 347.20-106L347.20-106L347.20-106Q366.20-106 375.60-98L375.60-98L375.60-98Q382.60-92 382.60-82.20L382.60-82.20L382.60-82.20Q382.60-47 321.80-47L321.80-47L321.80-47Q321-41.80 321-37.40L321-37.40L321-37.40Q321-28.20 325.10-24.70L325.10-24.70L325.10-24.70Q329.20-21.20 336.80-21.20L336.80-21.20L336.80-21.20Q344.40-21.20 352.50-24.70L352.50-24.70L352.50-24.70Q360.60-28.20 364-33.80ZM323.20-55.60L323.20-55.60L323.20-55.60Q337.40-55.60 345.60-64.40L345.60-64.40L345.60-64.40Q353.80-72.80 353.80-86.20L353.80-86.20L353.80-86.20Q353.80-90.80 352.10-93.30L352.10-93.30L352.10-93.30Q350.40-95.80 347-95.80L347-95.80L347-95.80Q343.60-95.80 340.70-94.50L340.70-94.50L340.70-94.50Q337.80-93.20 334.80-88.80L334.80-88.80L334.80-88.80Q327.40-78.80 323.20-55.60ZM508.60-92.40L508.60-92.40L508.60-92.40Q511.60-98.40 511.60-104L511.60-104L511.60-104Q511.60-109.60 511-112.70L511-112.70L511-112.70Q510.40-115.80 509-118.20L509-118.20L509-118.20Q506-123.40 500-123.40L500-123.40L500-123.40Q492.60-123.40 486.60-118L486.60-118L486.60-118Q480.20-112.40 480.20-103.60L480.20-103.60L480.20-103.60Q480.20-98 484.10-93.70L484.10-93.70L484.10-93.70Q488-89.40 494-85.40L494-85.40L494-85.40Q500-81.40 506.80-77.40L506.80-77.40L506.80-77.40Q513.60-73.40 519.60-68.60L519.60-68.60L519.60-68.60Q533.40-57.60 533.40-42.80L533.40-42.80L533.40-42.80Q533.40-32.80 528.10-24.30L528.10-24.30L528.10-24.30Q522.80-15.80 514-9.60L514-9.60L514-9.60Q494.80 4 469.40 4L469.40 4L469.40 4Q448.80 4 438.20-2.70L438.20-2.70L438.20-2.70Q427.60-9.40 427.60-19.60L427.60-19.60L427.60-19.60Q427.60-37.80 441.80-42.40L441.80-42.40L441.80-42.40Q445.80-43.80 451.90-43.80L451.90-43.80L451.90-43.80Q458-43.80 465-41.20L465-41.20L465-41.20Q461.80-33 461.80-25.60L461.80-25.60L461.80-25.60Q461.80-9.60 473.20-9.60L473.20-9.60L473.20-9.60Q480.60-9.60 486.70-15L486.70-15L486.70-15Q492.80-20.40 492.80-26.50L492.80-26.50L492.80-26.50Q492.80-32.60 488.90-37L488.90-37L488.90-37Q485-41.40 479.20-44.90L479.20-44.90L479.20-44.90Q473.40-48.40 466.70-51.80L466.70-51.80L466.70-51.80Q460-55.20 454.20-60L454.20-60L454.20-60Q440.60-71 440.60-88.60L440.60-88.60L440.60-88.60Q440.60-100 446.20-108.90L446.20-108.90L446.20-108.90Q451.80-117.80 460.80-123.80L460.80-123.80L460.80-123.80Q478.80-136 500.90-136L500.90-136L500.90-136Q523-136 533.70-129.40L533.70-129.40L533.70-129.40Q544.40-122.80 544.40-111.60L544.40-111.60L544.40-111.60Q544.40-101.80 536.80-95.60L536.80-95.60L536.80-95.60Q530.20-90.40 522.20-90.40L522.20-90.40L522.20-90.40Q514.20-90.40 508.60-92.40ZM646.80-83.20L646.80-83.20L646.80-83.20Q646.80-74.80 639.80-69.60L639.80-69.60L639.80-69.60Q632.80-64.40 621.40-64.40L621.40-64.40L621.40-64.40Q616.60-64.40 613.80-65.80L613.80-65.80L613.80-65.80Q616-71 616.70-77.50L616.70-77.50L616.70-77.50Q617.40-84 617.40-85.80L617.40-85.80L617.40-85.80Q617.40-94.20 611.60-94.20L611.60-94.20L611.60-94.20Q607.60-94.20 603.10-89.20L603.10-89.20L603.10-89.20Q598.60-84.20 594.80-76.40L594.80-76.40L594.80-76.40Q586.40-58.40 586.40-40.20L586.40-40.20L586.40-40.20Q586.40-30.20 590.20-25.70L590.20-25.70L590.20-25.70Q594-21.20 602.40-21.20L602.40-21.20L602.40-21.20Q614-21.20 623.20-30.80L623.20-30.80L623.20-30.80Q625.80-33.80 627.20-37.20L627.20-37.20L627.20-37.20Q634.80-33.20 634.80-22.20L634.80-22.20L634.80-22.20Q634.80-11 622.40-3.60L622.40-3.60L622.40-3.60Q609.60 4 589.20 4L589.20 4L589.20 4Q548.60 4 548.60-39L548.60-39L548.60-39Q548.60-70.40 566.40-88.40L566.40-88.40L566.40-88.40Q583.60-106 615.20-106L615.20-106L615.20-106Q646.80-106 646.80-83.20ZM695.80 4L695.80 4L695.80 4Q651.80 4 651.80-37.40L651.80-37.40L651.80-37.40Q651.80-66.80 668.00-85.80L668.00-85.80L668.00-85.80Q685.20-106 715.00-106L715.00-106L715.00-106Q736.60-106 747.60-96L747.60-96L747.60-96Q758.60-86 758.60-65L758.60-65L758.60-65Q758.60-33 741.40-14.40L741.40-14.40L741.40-14.40Q724.60 4 695.80 4ZM701.00-83L701.00-83L701.00-83Q698.60-77.60 696.70-69.50L696.70-69.50L696.70-69.50Q694.80-61.40 692.40-48.60L692.40-48.60L692.40-48.60Q690.00-35.80 690.00-20L690.00-20L690.00-20Q690.00-14.80 691.70-11.40L691.70-11.40L691.70-11.40Q693.40-8 698.00-8L698.00-8L698.00-8Q702.60-8 705.50-10.20L705.50-10.20L705.50-10.20Q708.40-12.40 710.60-17.60L710.60-17.60L710.60-17.60Q714.60-26.80 717.80-43.90L717.80-43.90L717.80-43.90Q721.00-61 721.30-68.40L721.30-68.40L721.30-68.40Q721.60-75.80 721.60-81.30L721.60-81.30L721.60-81.30Q721.60-86.80 720.00-90.40L720.00-90.40L720.00-90.40Q718.40-94 713.90-94L713.90-94L713.90-94Q709.40-94 706.40-91.20L706.40-91.20L706.40-91.20Q703.40-88.40 701.00-83ZM833.00-56.20L833.00-56.20L833.00-56.20Q840.20-69 840.20-82L840.20-82L840.20-82Q840.20-90.60 834.00-90.60L834.00-90.60L834.00-90.60Q829.20-90.60 824.20-82.40L824.20-82.40L824.20-82.40Q819.00-74.20 817.40-63.60L817.40-63.60L807.00 0L765.60 4L786.00-102L819.00-106L815.40-85.80L815.40-85.80Q825.20-106 847.20-106L847.20-106L847.20-106Q858.80-106 865.10-100L865.10-100L865.10-100Q871.40-94 871.40-81.70L871.40-81.70L871.40-81.70Q871.40-69.40 863.30-61.60L863.30-61.60L863.30-61.60Q855.20-53.80 841.40-53.80L841.40-53.80L841.40-53.80Q835.40-53.80 833.00-56.20ZM955.60-33.80L955.60-33.80L955.60-33.80Q960.60-30.40 960.60-22.90L960.60-22.90L960.60-22.90Q960.60-15.40 956.80-10.60L956.80-10.60L956.80-10.60Q953.00-5.80 946.80-2.60L946.80-2.60L946.80-2.60Q934.00 4 920.20 4L920.20 4L920.20 4Q906.40 4 898.30 1L898.30 1L898.30 1Q890.20-2 884.80-7.60L884.80-7.60L884.80-7.60Q874.20-18.20 874.20-37.60L874.20-37.60L874.20-37.60Q874.20-67.80 890.60-86.20L890.60-86.20L890.60-86.20Q908.20-106 938.80-106L938.80-106L938.80-106Q957.80-106 967.20-98L967.20-98L967.20-98Q974.20-92 974.20-82.20L974.20-82.20L974.20-82.20Q974.20-47 913.40-47L913.40-47L913.40-47Q912.60-41.80 912.60-37.40L912.60-37.40L912.60-37.40Q912.60-28.20 916.70-24.70L916.70-24.70L916.70-24.70Q920.80-21.20 928.40-21.20L928.40-21.20L928.40-21.20Q936.00-21.20 944.10-24.70L944.10-24.70L944.10-24.70Q952.20-28.20 955.60-33.80ZM914.80-55.60L914.80-55.60L914.80-55.60Q929.00-55.60 937.20-64.40L937.20-64.40L937.20-64.40Q945.40-72.80 945.40-86.20L945.40-86.20L945.40-86.20Q945.40-90.80 943.70-93.30L943.70-93.30L943.70-93.30Q942.00-95.80 938.60-95.80L938.60-95.80L938.60-95.80Q935.20-95.80 932.30-94.50L932.30-94.50L932.30-94.50Q929.40-93.20 926.40-88.80L926.40-88.80L926.40-88.80Q919.00-78.80 914.80-55.60Z" fill="#eb6c6c"></path></g></g><style>text {
  font-size: 64px;
  font-family: Arial Black;
  dominant-baseline: central;
  text-anchor: middle;
}</style></svg>